<svg xmlns="http://www.w3.org/2000/svg" viewBox="0 0 512 512" role="img" aria-label="National Epoxy Pros mark">
  <rect width="512" height="512" rx="88" fill="#050505"/>
  <g stroke="#D4A62A" stroke-width="7" stroke-linecap="round" opacity=".9">
    <path d="M105 205 145 140 225 165 260 250 315 180 405 210 420 365 382 330 300 350 225 330 145 320 105 205"/>
    <path d="M185 220 225 165M185 220 260 250M260 250 328 285 355 245 315 180M260 250 225 330M260 105 365 125 315 180"/>
  </g>
  <g fill="#D4A62A" stroke="#FFE684" stroke-width="3">
    <circle cx="105" cy="205" r="15"/><circle cx="145" cy="140" r="10"/><circle cx="185" cy="220" r="13"/>
    <circle cx="225" cy="165" r="9"/><circle cx="260" cy="250" r="18"/><circle cx="315" cy="180" r="12"/>
    <circle cx="355" cy="245" r="10"/><circle cx="405" cy="210" r="16"/><circle cx="145" cy="320" r="18"/>
    <circle cx="225" cy="330" r="11"/><circle cx="300" cy="350" r="13"/><circle cx="382" cy="330" r="12"/>
    <circle cx="328" cy="285" r="7"/><circle cx="420" cy="365" r="18"/><circle cx="260" cy="105" r="12"/><circle cx="365" cy="125" r="13"/>
  </g>
  <circle cx="256" cy="256" r="48" fill="#050505" stroke="#D4A62A" stroke-width="7"/>
  <path d="m256 227 9 19 21 3-15 15 4 21-19-10-19 10 4-21-15-15 21-3z" fill="#D4A62A"/>
</svg>